<svg width="24" height="22" viewBox="0 0 24 22" fill="none" xmlns="http://www.w3.org/2000/svg">
<path d="M23.4736 4.84828C23.0186 4.29234 22.3109 3.95445 21.5785 3.95445H6.19066L5.71097 2.16679C5.43262 1.12759 4.47323 0.40271 3.36082 0.40271H0.783719C0.354361 0.40271 0 0.740603 0 1.15214C0 1.56272 0.353351 1.90158 0.783719 1.90158H3.36082C3.73985 1.90158 4.06854 2.14321 4.1692 2.50565L7.25167 14.2493C7.53003 15.2885 8.48941 16.0133 9.60182 16.0133H19.6833C20.7947 16.0133 21.7808 15.2885 22.0335 14.2493L23.9286 6.80687C24.1053 6.12918 23.9543 5.40429 23.4736 4.84835L23.4736 4.84828ZM22.3879 6.467L20.4928 13.9094C20.3921 14.2718 20.0634 14.5135 19.6844 14.5135H9.60185C9.22282 14.5135 8.89413 14.2718 8.79347 13.9094L6.59533 5.47705H21.5796C21.8323 5.47705 22.085 5.59786 22.237 5.79136C22.388 5.98391 22.463 6.22554 22.388 6.46717L22.3879 6.467Z" fill="white"/>
<path d="M10.1332 16.9778C8.69316 16.9778 7.50586 18.1132 7.50586 19.4902C7.50586 20.8672 8.69326 22.0027 10.1332 22.0027C11.5733 22.0036 12.7606 20.8682 12.7606 19.491C12.7606 18.1137 11.5732 16.9775 10.1332 16.9775V16.9778ZM10.1332 20.4814C9.55188 20.4814 9.09685 20.0463 9.09685 19.4903C9.09685 18.9344 9.55188 18.4993 10.1332 18.4993C10.7146 18.4993 11.1696 18.9344 11.1696 19.4903C11.1687 20.0227 10.689 20.4814 10.1332 20.4814Z" fill="white"/>
<path d="M18.8251 16.9778C17.385 16.9778 16.1977 18.1132 16.1977 19.4902C16.1977 20.8672 17.3851 22.0027 18.8251 22.0027C20.265 22.0027 21.4524 20.8672 21.4524 19.4902C21.4278 18.1141 20.265 16.9778 18.8251 16.9778ZM18.8251 20.4814C18.2437 20.4814 17.7887 20.0463 17.7887 19.4903C17.7887 18.9344 18.2437 18.4993 18.8251 18.4993C19.4064 18.4993 19.8615 18.9344 19.8615 19.4903C19.8615 20.0227 19.3808 20.4814 18.8251 20.4814Z" fill="white"/>
</svg>
